:SAMPLES-PER-SECOND 30
:FULLY-SPECIFIED
:DEGREES
764
root  -2.88648 38.0783 4.48669 -69.0991 -88.1978 61.9751
RightUpLeg  -3.53231 -1.35968 -21.7078
RightLeg  13.9598 -0.0135407 -1.98847
RightFoot  -4.6791 -1.15329 19.0962
RightToes  6.35927e-011 1.30204e-014 -6.03759e-014
Spine  17.7032 0.3204 6.76859
Spine1  -9.4401 1.56277 -3.92439
HEad  -2.05927 1.08418 -5.48415
LeftShoulder1  2.34349 -4.63543 -22.4954
LeftArm  2.14071 28.9739 -50.1468
LeftForeArm  41.2096 -55.0634 -12.532
LeftHand  -1.80896 -2.63899 26.0421
RightShoulder  1.27757 1.94975 16.8314
RightArm  12.5544 -18.7401 49.8023
RightForeArm  26.4856 36.4448 6.67171
RightHand  -2.30459 2.45409 -33.4277
LeftUpLeg  3.14328 15.0352 23.544
LeftLeg  10.259 -4.49857 0.670021
LeftFoot  3.99607 3.93633 -28.8642
LeftToes  7.40077e-010 7.2695e-011 -6.03601e-011
765
root  -2.96095 38.133 4.95825 -92.5581 -88.4654 85.426
RightUpLeg  -1.98166 -6.04115 -21.8758
RightLeg  9.81867 4.58083 -2.87018
RightFoot  -1.07489 -1.79995 19.7497
RightToes  6.35927e-011 1.30204e-014 -6.03759e-014
Spine  17.683 0.522073 5.5749
Spine1  -9.84895 1.42228 -2.74662
HEad  0.691035 1.52529 -4.74513
LeftShoulder1  2.3589 -4.51443 -23.1565
LeftArm  3.65879 27.9431 -49.853
LeftForeArm  35.7721 -47.1015 -9.43888
LeftHand  -1.90161 -3.9003 23.7382
RightShoulder  1.34027 2.03571 17.6628
RightArm  14.8562 -17.9438 48.4963
RightForeArm  22.9525 30.819 5.41511
RightHand  -2.13038 2.28895 -31.6716
LeftUpLeg  4.72204 15.369 22.7235
LeftLeg  8.38073 -3.97859 1.22104
LeftFoot  2.5159 3.36988 -27.3693
LeftToes  7.40077e-010 7.2695e-011 -6.03601e-011
766
root  -3.02464 38.1701 5.26704 -114.743 -87.9972 108.313
RightUpLeg  -1.22359 -10.6218 -22.5516
RightLeg  5.62525 8.29594 -3.56903
RightFoot  2.65862 -2.61567 21.2114
RightToes  6.35927e-011 1.30204e-014 -6.03759e-014
Spine  17.2885 0.820885 5.02335
Spine1  -10.8163 1.64253 -3.68435
HEad  3.92072 1.15676 -3.33833
LeftShoulder1  2.33875 -4.46938 -23.0649
LeftArm  6.47537 26.9469 -49.0616
LeftForeArm  33.8225 -40.3727 -7.33143
LeftHand  -1.87281 -4.58727 21.838
RightShoulder  1.44237 2.25322 18.6016
RightArm  15.8702 -18.7066 48.3574
RightForeArm  18.3163 25.4207 4.61051
RightHand  -1.99983 2.07493 -30.6387
LeftUpLeg  5.37992 15.3488 21.5549
LeftLeg  6.99415 -2.43212 1.57252
LeftFoot  1.11428 2.83121 -25.6251
LeftToes  7.40077e-010 7.2695e-011 -6.03601e-011
767
root  -3.08407 38.1815 5.44996 -134.758 -86.8613 129.349
RightUpLeg  -1.38666 -12.984 -23.3158
RightLeg  2.30508 10.6025 -3.78008
RightFoot  4.99558 -3.37592 23.4681
RightToes  6.35927e-011 1.30204e-014 -6.03759e-014
Spine  16.3292 1.33927 4.83956
Spine1  -11.1646 2.21784 -5.51412
HEad  6.43356 0.597913 -2.083
LeftShoulder1  2.26126 -4.33226 -22.5618
LeftArm  8.94571 26.2228 -48.4906
LeftForeArm  31.33 -35.3549 -6.09496
LeftHand  -1.7886 -4.5133 21.0507
RightShoulder  1.47518 2.31493 18.9226
RightArm  11.7357 -19.2889 49.3121
RightForeArm  17.3586 19.4878 6.12752
RightHand  -1.914 1.81871 -30.3738
LeftUpLeg  5.80301 15.4045 20.7093
LeftLeg  5.89848 -0.786477 1.32963
LeftFoot  0.0318792 2.54218 -25.1737
LeftToes  7.40077e-010 7.2695e-011 -6.03601e-011
768
root  -3.13011 38.1825 5.52436 -144.026 -85.4715 139.185
RightUpLeg  -1.71415 -13.9952 -24.0388
RightLeg  0.356625 12.2767 -3.62751
RightFoot  6.07433 -3.90811 25.4125
RightToes  6.35927e-011 1.30204e-014 -6.03759e-014
Spine  15.3509 1.8639 4.01839
Spine1  -10.4115 2.70069 -6.061
HEad  7.66175 0.413018 -1.56469
LeftShoulder1  2.19832 -4.09998 -22.6196
LeftArm  10.3633 25.6339 -47.797
LeftForeArm  26.5108 -31.6394 -5.44695
LeftHand  -1.76534 -4.42178 20.9712
RightShoulder  1.44727 2.23582 18.7747
RightArm  -1.97645 -18.4222 49.9473
RightForeArm  26.4376 12.0117 10.9057
RightHand  -1.85545 1.67387 -30.0602
LeftUpLeg  6.63869 15.6478 20.4451
LeftLeg  4.71958 0.0635254 0.663669
LeftFoot  0.00905013 2.5959 -25.7259
LeftToes  7.40077e-010 7.2695e-011 -6.03601e-011
769
root  -3.12708 38.1979 5.50699 -143.844 -84.9649 139.125
RightUpLeg  -1.56515 -14.5711 -24.5828
RightLeg  -0.63217 12.7637 -3.26171
RightFoot  6.92243 -4.20374 26.0399
RightToes  6.35927e-011 1.30204e-014 -6.03759e-014
Spine  14.9937 1.91814 2.60288
Spine1  -9.71663 2.5589 -4.98687
HEad  8.4212 0.587814 -1.64478
LeftShoulder1  2.20797 -3.99261 -23.1894
LeftArm  11.9079 25.1522 -46.7991
LeftForeArm  20.6877 -28.074 -4.90523
LeftHand  -1.80553 -4.65389 20.9573
RightShoulder  1.42742 2.17204 18.7039
RightArm  -11.3571 -17.0753 50.2141
RightForeArm  32.7275 5.086 12.8
RightHand  -1.77707 1.62279 -29.0465
LeftUpLeg  7.13774 15.8368 20.3969
LeftLeg  3.89929 0.25566 0.272329
LeftFoot  0.511121 2.72176 -25.8523
LeftToes  7.40077e-010 7.2695e-011 -6.03601e-011
770
root  -3.06687 38.2156 5.42097 -138.333 -85.7271 133.832
RightUpLeg  -1.24797 -14.7171 -24.5076
RightLeg  -0.975808 11.7429 -2.92546
RightFoot  7.57813 -4.30894 25.7746
RightToes  6.35927e-011 1.30204e-014 -6.03759e-014
Spine  15.1422 1.4376 1.48719
Spine1  -9.8871 1.84889 -3.47874
HEad  9.43492 0.800738 -1.99015
LeftShoulder1  2.24934 -4.09392 -23.3527
LeftArm  14.1872 24.7892 -46.2368
LeftForeArm  15.7522 -24.1046 -4.53889
LeftHand  -1.83191 -4.87315 20.8165
RightShoulder  1.4149 2.1294 18.6694
RightArm  -14.9195 -16.5089 50.6637
RightForeArm  35.054 0.974672 12.7285
RightHand  -1.66235 1.53956 -27.5626
LeftUpLeg  6.31369 15.7359 20.3838
LeftLeg  4.06167 -0.0544067 0.536746
LeftFoot  0.6303 2.71615 -25.555
LeftToes  7.40077e-010 7.2695e-011 -6.03601e-011
771
root  -3.00023 38.222 5.29088 -131.491 -87.0157 127.38
RightUpLeg  -1.14226 -14.4091 -23.7715
RightLeg  -0.847596 10.2331 -2.72234
RightFoot  7.60662 -4.28126 25.5793
RightToes  6.35927e-011 1.30204e-014 -6.03759e-014
Spine  15.1386 0.865928 0.963133
Spine1  -10.0366 1.10529 -2.08851
HEad  10.3033 0.838053 -2.45132
LeftShoulder1  2.24781 -4.18982 -22.9407
LeftArm  13.8753 24.3548 -46.4035
LeftForeArm  15.0587 -20.1517 -5.69144
LeftHand  -1.8295 -4.88206 20.7731
RightShoulder  1.37623 2.04229 18.3414
RightArm  -16.6846 -16.8975 51.5091
RightForeArm  35.342 -0.181722 12.2265
RightHand  -1.5133 1.28864 -26.0852
LeftUpLeg  4.91718 15.632 20.7148
LeftLeg  4.50524 -0.927268 1.05019
LeftFoot  0.655902 2.72413 -25.5752
LeftToes  7.40077e-010 7.2695e-011 -6.03601e-011
772
root  -2.97506 38.23 5.12807 -127.573 -88.0798 123.686
RightUpLeg  -1.03136 -14.1328 -22.9535
RightLeg  -0.600232 9.2826 -2.43631
RightFoot  7.28281 -4.21795 25.6362
RightToes  6.35927e-011 1.30204e-014 -6.03759e-014
Spine  14.7727 0.576334 0.470963
Spine1  -9.31675 0.628033 -0.540207
HEad  10.5647 0.653248 -2.85008
LeftShoulder1  2.20536 -4.10919 -22.6792
LeftArm  9.5124 23.8596 -46.6152
LeftForeArm  18.9004 -17.0079 -8.03004
LeftHand  -1.8211 -4.84059 20.7615
RightShoulder  1.33188 1.94768 17.9274
RightArm  -17.5181 -17.5628 52.1698
RightForeArm  33.8483 0.814431 12.0444
RightHand  -1.33649 0.861135 -24.6529
LeftUpLeg  4.3638 15.8734 21.5437
LeftLeg  4.12099 -1.99426 1.26259
LeftFoot  1.15229 2.86811 -25.8649
LeftToes  7.40077e-010 7.2695e-011 -6.03601e-011
773
root  -2.98455 38.2495 4.95285 -121.862 -88.8436 118.044
RightUpLeg  -0.731627 -14.1598 -22.412
RightLeg  -0.57464 8.76078 -1.92323
RightFoot  7.1589 -4.20321 25.7137
RightToes  6.35927e-011 1.30204e-014 -6.03759e-014
Spine  14.3807 0.498915 -0.203319
Spine1  -8.33942 0.319529 1.14584
HEad  10.6186 0.331111 -2.99372
LeftShoulder1  2.17906 -3.97267 -22.8654
LeftArm  7.01427 23.7415 -46.57
LeftForeArm  20.4947 -15.5862 -8.97522
LeftHand  -1.79039 -4.81089 20.4794
RightShoulder  1.31399 1.87749 17.9138
RightArm  -16.4642 -18.0589 52.0726
RightForeArm  31.7006 2.76085 12.3277
RightHand  -1.19307 0.50639 -23.3686
LeftUpLeg  4.66625 16.3032 22.5167
LeftLeg  2.89981 -2.74274 1.2429
LeftFoot  1.87255 3.06437 -26.1408
LeftToes  7.40077e-010 7.2695e-011 -6.03601e-011
774
root  -2.99611 38.2678 4.79571 -126.153 -89.6266 122.591
RightUpLeg  -0.543769 -14.2634 -21.9223
RightLeg  -0.698551 8.12053 -1.35862
RightFoot  7.18739 -4.23387 25.8555
RightToes  6.35927e-011 1.30204e-014 -6.03759e-014
Spine  14.0759 0.410637 -0.667533
Spine1  -7.90774 0.0509593 2.55765
HEad  10.9405 0.0125941 -2.95968
LeftShoulder1  2.17948 -3.93603 -23.0228
LeftArm  6.11884 24.0875 -46.5153
LeftForeArm  20.1227 -15.3706 -9.09009
LeftHand  -1.73494 -4.74532 19.9903
RightShoulder  1.30216 1.76278 18.2499
RightArm  -13.5987 -18.3056 51.5288
RightForeArm  30.2392 4.72317 12.6277
RightHand  -1.13587 0.409229 -22.6359
LeftUpLeg  4.73928 16.6013 23.2817
LeftLeg  1.73272 -3.22672 1.31563
LeftFoot  2.37431 3.22963 -26.5399
LeftToes  7.40077e-010 7.2695e-011 -6.03601e-011
